<svg xmlns="http://www.w3.org/2000/svg" version="1.1" xmlns:xlink="http://www.w3.org/1999/xlink" width="200" height="200"><svg xmlns="http://www.w3.org/2000/svg" version="1.1" xmlns:xlink="http://www.w3.org/1999/xlink" viewBox="0 0 200 200"><rect width="200" height="200" fill="url('#gradient')"></rect><defs><linearGradient id="SvgjsLinearGradient1001" gradientTransform="rotate(45 0.5 0.5)"><stop offset="0%" stop-color="#000000"></stop><stop offset="100%" stop-color="#590c54"></stop></linearGradient></defs><g><g fill="#ff2d69" transform="matrix(3.269327251995439,0,0,3.269327251995439,27.947894910613385,123.23294408661202)" stroke="#  ff2d" stroke-width="0.2"><path d="M8.41-3.78L8.41-3.78Q8.41-4.53 7.88-4.95Q7.34-5.37 6.01-5.82Q4.67-6.27 3.82-6.69L3.82-6.69Q1.05-8.05 1.05-10.42L1.05-10.42Q1.05-11.60 1.74-12.50Q2.43-13.41 3.69-13.91Q4.95-14.41 6.52-14.41L6.52-14.41Q8.06-14.41 9.27-13.87Q10.49-13.32 11.16-12.31Q11.84-11.30 11.84-10L11.84-10L8.42-10Q8.42-10.87 7.89-11.35Q7.35-11.83 6.45-11.83L6.45-11.83Q5.53-11.83 5.00-11.42Q4.46-11.02 4.46-10.39L4.46-10.39Q4.46-9.84 5.05-9.40Q5.63-8.96 7.11-8.48Q8.58-8.01 9.53-7.46L9.53-7.46Q11.84-6.13 11.84-3.80L11.84-3.80Q11.84-1.93 10.43-0.87Q9.02 0.20 6.57 0.20L6.57 0.20Q4.84 0.20 3.44-0.42Q2.04-1.04 1.33-2.12Q0.63-3.20 0.63-4.61L0.63-4.61L4.06-4.61Q4.06-3.47 4.65-2.92Q5.24-2.38 6.57-2.38L6.57-2.38Q7.42-2.38 7.92-2.75Q8.41-3.12 8.41-3.78ZM25.63-7.47L25.63-6.82Q25.63-4.74 24.86-3.13Q24.09-1.53 22.67-0.67Q21.25 0.20 19.43 0.20Q17.62 0.20 16.21-0.64Q14.80-1.47 14.02-3.03Q13.23-4.58 13.19-6.59L13.19-6.59L13.19-7.39Q13.19-9.48 13.96-11.08Q14.73-12.68 16.16-13.54Q17.59-14.41 19.41-14.41L19.41-14.41Q21.22-14.41 22.64-13.55Q24.05-12.70 24.84-11.11Q25.63-9.52 25.63-7.47L25.63-7.47ZM22.15-6.76L22.15-7.41Q22.15-9.53 21.44-10.63Q20.73-11.73 19.41-11.73L19.41-11.73Q16.84-11.73 16.69-7.86L16.69-7.86L16.68-6.82Q16.68-4.73 17.37-3.60Q18.07-2.48 19.43-2.48L19.43-2.48Q20.73-2.48 21.44-3.58Q22.14-4.69 22.15-6.76L22.15-6.76ZM36.44-14.22L38.42-5.30L40.05-14.22L43.45-14.22L40.43 0L36.88 0L34.97-8.11L33.11 0L29.56 0L26.53-14.22L29.94-14.22L31.57-5.30L33.53-14.22L36.44-14.22Z"></path></g></g></svg><style>@media (prefers-color-scheme: light) { :root { filter: none; } }
@media (prefers-color-scheme: dark) { :root { filter: none; } }
</style></svg>